<?xml version="1.0" ?><svg enable-background="new 0 0 512 512" id="Layer_1" version="1.1" viewBox="0 0 512 512" xml:space="preserve" xmlns="http://www.w3.org/2000/svg" xmlns:xlink="http://www.w3.org/1999/xlink"><g><g><linearGradient gradientUnits="userSpaceOnUse" id="SVGID_1_" x1="0.0000038" x2="512" y1="256" y2="256"><stop offset="0" style="stop-color:#00AEEE"/><stop offset="1" style="stop-color:#0095DA"/></linearGradient><circle cx="256" cy="256" fill="url(#SVGID_1_)" r="256"/><linearGradient gradientUnits="userSpaceOnUse" id="SVGID_2_" x1="42.6666679" x2="469.3333435" y1="256.0005188" y2="256.0005188"><stop offset="0" style="stop-color:#0095DA"/><stop offset="1" style="stop-color:#00AEEE"/></linearGradient><path d="M256,469.3338623c-117.6314697,0-213.3333282-95.7023926-213.3333282-213.3333435    c0-117.6314545,95.7018585-213.333313,213.3333282-213.333313c117.636261,0,213.3333435,95.7018661,213.3333435,213.333313    C469.3333435,373.6314697,373.636261,469.3338623,256,469.3338623z" fill="url(#SVGID_2_)"/></g><g><rect height="20.3578663" opacity="0.3" width="240" x="144" y="363.6421204"/><rect height="20.3600006" opacity="0.3" width="240" x="144" y="333.2810669"/><path d="M144,144v179.2810669h240V144H144z M368.9984131,287.4293213h-5c-8.2708435,0-15,6.7285461-15,15v5    H178.9983978v-5c0-8.2714539-6.7285309-15-15-15h-5V179.8538666h5c8.2714691,0,15-6.7285309,15-15v-5h170.0000153v5    c0,8.2714691,6.7291565,15,15,15h5V287.4293213z" opacity="0.3"/><path d="M339.5013428,169.8538666H188.4960022c-1.9925385,9.7802734-9.7167969,17.5050659-19.4976044,19.4970703    v88.5813446c9.7808075,1.9919739,17.5050659,9.7173157,19.4976044,19.4970398h151.0053406    c1.9925232-9.7797241,9.7173157-17.5050659,19.4970703-19.4970398v-88.5813446    C349.2186584,187.3589325,341.493866,179.63414,339.5013428,169.8538666z M264,266.1322632    c-12.6463928,0-22.8997345-14.5461273-22.8997345-32.4906616S251.3536072,201.1509399,264,201.1509399    c12.6469421,0,22.8997192,14.5461273,22.8997192,32.4906616S276.6469421,266.1322632,264,266.1322632z" opacity="0.3"/></g><g><rect fill="#FFFFFF" height="20.3578663" width="240" x="136" y="355.6421204"/><rect fill="#FFFFFF" height="20.3600006" width="240" x="136" y="325.2810669"/><path d="M136,136v179.2810669h240V136H136z M360.9984131,279.4293213h-5c-8.2708435,0-15,6.7285461-15,15v5    H170.9983978v-5c0-8.2714539-6.7285309-15-15-15h-5V171.8538666h5c8.2714691,0,15-6.7285309,15-15v-5h170.0000153v5    c0,8.2714691,6.7291565,15,15,15h5V279.4293213z" fill="#FFFFFF"/><path d="M331.5013428,161.8538666H180.4960022c-1.9925385,9.7802734-9.7167969,17.5050659-19.4976044,19.4970703    v88.5813446c9.7808075,1.9919739,17.5050659,9.7173157,19.4976044,19.4970398h151.0053406    c1.9925232-9.7797241,9.7173157-17.5050659,19.4970703-19.4970398v-88.5813446    C341.2186584,179.3589325,333.493866,171.63414,331.5013428,161.8538666z M256,258.1322632    c-12.6463928,0-22.8997345-14.5461273-22.8997345-32.4906616S243.3536072,193.1509399,256,193.1509399    c12.6469421,0,22.8997192,14.5461273,22.8997192,32.4906616S268.6469421,258.1322632,256,258.1322632z" fill="#FFFFFF"/></g></g></svg>