<?xml version="1.0" ?><svg enable-background="new 0 0 32 32" version="1.1" viewBox="0 0 32 32" xml:space="preserve" xmlns="http://www.w3.org/2000/svg" xmlns:xlink="http://www.w3.org/1999/xlink"><g id="FILLED_copy"><g><g><path d="M28.083,12.606c0-6.687-5.41-12.107-12.083-12.107S3.917,5.92,3.917,12.606     c0,5.392,3.52,9.956,8.381,11.523L16,30.952l3.702-6.823C24.563,22.562,28.083,17.998,28.083,12.606z" fill="#FFFFFF"/><path d="M16,32.001l-4.047-7.46c-5.115-1.736-8.536-6.508-8.536-11.935C3.417,5.655,9.062-0.001,16-0.001     c6.938,0,12.583,5.655,12.583,12.607c0,5.427-3.422,10.198-8.536,11.935L16,32.001z M16,0.999     c-6.387,0-11.583,5.207-11.583,11.607c0,5.059,3.229,9.498,8.035,11.047l0.19,0.062L16,29.904l3.358-6.188l0.19-0.062     c4.806-1.549,8.034-5.988,8.034-11.047C27.583,6.206,22.386,0.999,16,0.999z"/></g><g id="Cat_4_"><path d="M18.713,20.064h-1.991h-1.993c0,0,0.005-1.185,0-1.997c-2.728,0.588-3.488-1.498-3.488-1.498     c-0.498-0.999-0.997-1.498-0.997-1.498c-0.997-0.593,0-0.499,0-0.499c0.997,0,1.495,0.999,1.495,0.999     c0.875,1.488,2.431,1.248,2.99,0.999c0-0.499,0.218-1.254,0.498-1.498c-2.177-0.246-3.989-1.498-3.989-3.995     s0.5-2.996,0.999-3.495c-0.101-0.246-0.518-1.156,0.015-2.497c0,0,0.979,0,1.976,1.498c0.494-0.495,1.993-0.499,2.492-0.499     c0.497,0,1.997,0.004,2.491,0.499c0.997-1.498,1.978-1.498,1.978-1.498c0.533,1.341,0.116,2.251,0.015,2.497     c0.498,0.499,0.997,0.999,0.997,3.495s-1.81,3.749-3.987,3.995c0.281,0.244,0.498,1.103,0.498,1.498L18.713,20.064L18.713,20.064     z" fill="#FF0000"/></g></g></g></svg>